<mxfile host="65bd71144e">
    <diagram name="Page-1" id="VFbJGZPOpK5JgmrG3dNE">
        <mxGraphModel dx="696" dy="364" grid="1" gridSize="10" guides="1" tooltips="1" connect="1" arrows="1" fold="1" page="1" pageScale="1" pageWidth="850" pageHeight="1100" math="0" shadow="0">
            <root>
                <mxCell id="0"/>
                <mxCell id="1" parent="0"/>
                <mxCell id="M6VMKP6yq0q3f6WBnMcB-18" value="&lt;div&gt;Client&lt;/div&gt;" style="swimlane;whiteSpace=wrap;html=1;" parent="1" vertex="1">
                    <mxGeometry x="740" y="85" width="430" height="325" as="geometry">
                        <mxRectangle x="380" y="110" width="70" height="30" as="alternateBounds"/>
                    </mxGeometry>
                </mxCell>
                <mxCell id="16" style="edgeStyle=none;html=1;entryX=0;entryY=0.5;entryDx=0;entryDy=0;exitX=1;exitY=0.5;exitDx=0;exitDy=0;" parent="M6VMKP6yq0q3f6WBnMcB-18" source="M6VMKP6yq0q3f6WBnMcB-16" target="6" edge="1">
                    <mxGeometry relative="1" as="geometry">
                        <mxPoint x="180" y="205" as="sourcePoint"/>
                    </mxGeometry>
                </mxCell>
                <mxCell id="M6VMKP6yq0q3f6WBnMcB-16" value="&lt;div&gt;Data &lt;br&gt;&lt;/div&gt;&lt;div&gt;Dispatcher&lt;/div&gt;" style="whiteSpace=wrap;html=1;strokeWidth=2;" parent="M6VMKP6yq0q3f6WBnMcB-18" vertex="1">
                    <mxGeometry x="40" y="150" width="120" height="60" as="geometry"/>
                </mxCell>
                <mxCell id="M6VMKP6yq0q3f6WBnMcB-19" value="&lt;div&gt;Entities Dictionary&lt;/div&gt;" style="swimlane;whiteSpace=wrap;html=1;" parent="M6VMKP6yq0q3f6WBnMcB-18" vertex="1">
                    <mxGeometry x="230" y="40" width="180" height="180" as="geometry"/>
                </mxCell>
                <mxCell id="M6VMKP6yq0q3f6WBnMcB-24" value="Entity" style="whiteSpace=wrap;html=1;strokeWidth=1;strokeColor=default;" parent="M6VMKP6yq0q3f6WBnMcB-19" vertex="1">
                    <mxGeometry y="20" width="180" height="40" as="geometry"/>
                </mxCell>
                <mxCell id="M6VMKP6yq0q3f6WBnMcB-27" value="Entity" style="whiteSpace=wrap;html=1;strokeWidth=1;strokeColor=default;" parent="M6VMKP6yq0q3f6WBnMcB-19" vertex="1">
                    <mxGeometry y="60" width="180" height="40" as="geometry"/>
                </mxCell>
                <mxCell id="M6VMKP6yq0q3f6WBnMcB-29" value="Entity" style="whiteSpace=wrap;html=1;strokeWidth=1;strokeColor=default;" parent="M6VMKP6yq0q3f6WBnMcB-19" vertex="1">
                    <mxGeometry y="100" width="180" height="40" as="geometry"/>
                </mxCell>
                <mxCell id="M6VMKP6yq0q3f6WBnMcB-31" value="..." style="whiteSpace=wrap;html=1;strokeWidth=1;strokeColor=default;" parent="M6VMKP6yq0q3f6WBnMcB-19" vertex="1">
                    <mxGeometry y="140" width="180" height="40" as="geometry"/>
                </mxCell>
                <mxCell id="M6VMKP6yq0q3f6WBnMcB-33" style="edgeStyle=orthogonalEdgeStyle;rounded=0;orthogonalLoop=1;jettySize=auto;html=1;exitX=0.5;exitY=1;exitDx=0;exitDy=0;" parent="M6VMKP6yq0q3f6WBnMcB-19" source="M6VMKP6yq0q3f6WBnMcB-27" target="M6VMKP6yq0q3f6WBnMcB-27" edge="1">
                    <mxGeometry relative="1" as="geometry"/>
                </mxCell>
                <mxCell id="M6VMKP6yq0q3f6WBnMcB-35" value="" style="endArrow=classic;html=1;rounded=0;exitX=1;exitY=0.5;exitDx=0;exitDy=0;" parent="M6VMKP6yq0q3f6WBnMcB-18" source="M6VMKP6yq0q3f6WBnMcB-16" edge="1">
                    <mxGeometry width="50" height="50" relative="1" as="geometry">
                        <mxPoint x="130" y="220" as="sourcePoint"/>
                        <mxPoint x="230" y="160" as="targetPoint"/>
                    </mxGeometry>
                </mxCell>
                <mxCell id="M6VMKP6yq0q3f6WBnMcB-36" value="" style="endArrow=classic;html=1;rounded=0;entryX=0;entryY=0.5;entryDx=0;entryDy=0;exitX=1;exitY=0.5;exitDx=0;exitDy=0;" parent="M6VMKP6yq0q3f6WBnMcB-18" source="M6VMKP6yq0q3f6WBnMcB-16" target="M6VMKP6yq0q3f6WBnMcB-31" edge="1">
                    <mxGeometry width="50" height="50" relative="1" as="geometry">
                        <mxPoint x="160" y="190" as="sourcePoint"/>
                        <mxPoint x="190" y="210" as="targetPoint"/>
                    </mxGeometry>
                </mxCell>
                <mxCell id="M6VMKP6yq0q3f6WBnMcB-37" value="" style="endArrow=classic;html=1;rounded=0;entryX=0;entryY=0.5;entryDx=0;entryDy=0;exitX=1;exitY=0.5;exitDx=0;exitDy=0;" parent="M6VMKP6yq0q3f6WBnMcB-18" source="M6VMKP6yq0q3f6WBnMcB-16" target="M6VMKP6yq0q3f6WBnMcB-27" edge="1">
                    <mxGeometry width="50" height="50" relative="1" as="geometry">
                        <mxPoint x="160" y="70" as="sourcePoint"/>
                        <mxPoint x="220" y="70" as="targetPoint"/>
                    </mxGeometry>
                </mxCell>
                <mxCell id="M6VMKP6yq0q3f6WBnMcB-38" value="" style="endArrow=classic;html=1;rounded=0;entryX=0;entryY=0.5;entryDx=0;entryDy=0;exitX=1;exitY=0.5;exitDx=0;exitDy=0;" parent="M6VMKP6yq0q3f6WBnMcB-18" source="M6VMKP6yq0q3f6WBnMcB-16" target="M6VMKP6yq0q3f6WBnMcB-24" edge="1">
                    <mxGeometry width="50" height="50" relative="1" as="geometry">
                        <mxPoint x="160" y="80" as="sourcePoint"/>
                        <mxPoint x="200" y="90" as="targetPoint"/>
                    </mxGeometry>
                </mxCell>
                <mxCell id="6" value="Player" style="whiteSpace=wrap;html=1;strokeWidth=1;strokeColor=default;" parent="M6VMKP6yq0q3f6WBnMcB-18" vertex="1">
                    <mxGeometry x="230" y="220" width="180" height="40" as="geometry"/>
                </mxCell>
                <mxCell id="18" value="Chunk&lt;br&gt;Loader" style="whiteSpace=wrap;html=1;strokeWidth=2;" parent="M6VMKP6yq0q3f6WBnMcB-18" vertex="1">
                    <mxGeometry x="40" y="65" width="120" height="60" as="geometry"/>
                </mxCell>
                <mxCell id="21" value="" style="endArrow=classic;html=1;shadow=0;rounded=0;exitX=1;exitY=0.5;exitDx=0;exitDy=0;entryX=-0.002;entryY=0.055;entryDx=0;entryDy=0;entryPerimeter=0;" parent="M6VMKP6yq0q3f6WBnMcB-18" source="18" target="M6VMKP6yq0q3f6WBnMcB-19" edge="1">
                    <mxGeometry width="50" height="50" relative="1" as="geometry">
                        <mxPoint x="170" y="85" as="sourcePoint"/>
                        <mxPoint x="220" y="35" as="targetPoint"/>
                        <Array as="points">
                            <mxPoint x="180" y="70"/>
                            <mxPoint x="180" y="50"/>
                        </Array>
                    </mxGeometry>
                </mxCell>
                <mxCell id="M6VMKP6yq0q3f6WBnMcB-41" value="WebRTC" style="swimlane;whiteSpace=wrap;html=1;" parent="1" vertex="1">
                    <mxGeometry x="460" y="85" width="200" height="325" as="geometry"/>
                </mxCell>
                <mxCell id="M6VMKP6yq0q3f6WBnMcB-10" value="" style="strokeWidth=2;html=1;shape=mxgraph.flowchart.direct_data;whiteSpace=wrap;rotation=-180;" parent="M6VMKP6yq0q3f6WBnMcB-41" vertex="1">
                    <mxGeometry x="32.5" y="235" width="135" height="30" as="geometry"/>
                </mxCell>
                <mxCell id="M6VMKP6yq0q3f6WBnMcB-42" value="Preloader" style="strokeWidth=2;html=1;shape=mxgraph.flowchart.direct_data;whiteSpace=wrap;" parent="M6VMKP6yq0q3f6WBnMcB-41" vertex="1">
                    <mxGeometry x="32.5" y="85" width="135" height="30" as="geometry"/>
                </mxCell>
                <mxCell id="M6VMKP6yq0q3f6WBnMcB-43" value="Handled Actions" style="strokeWidth=2;html=1;shape=mxgraph.flowchart.direct_data;whiteSpace=wrap;" parent="M6VMKP6yq0q3f6WBnMcB-41" vertex="1">
                    <mxGeometry x="35" y="165" width="135" height="30" as="geometry"/>
                </mxCell>
                <mxCell id="9" value="&lt;span style=&quot;&quot;&gt;Player Actions&lt;/span&gt;" style="text;html=1;align=center;verticalAlign=middle;whiteSpace=wrap;rounded=0;fillColor=none;fontColor=#0A0A0A;labelBackgroundColor=#FFFFFF;" parent="M6VMKP6yq0q3f6WBnMcB-41" vertex="1">
                    <mxGeometry x="57.5" y="235" width="90" height="30" as="geometry"/>
                </mxCell>
                <mxCell id="2" value="Server" style="swimlane;whiteSpace=wrap;html=1;" parent="1" vertex="1">
                    <mxGeometry x="10" y="85" width="370" height="325" as="geometry"/>
                </mxCell>
                <mxCell id="26" value="User 1" style="rounded=0;whiteSpace=wrap;html=1;dashed=1;" parent="2" vertex="1">
                    <mxGeometry x="270" y="92.5" width="80" height="40" as="geometry"/>
                </mxCell>
                <mxCell id="27" value="User n" style="rounded=0;whiteSpace=wrap;html=1;dashed=1;" parent="2" vertex="1">
                    <mxGeometry x="270" y="187.5" width="80" height="40" as="geometry"/>
                </mxCell>
                <mxCell id="30" style="edgeStyle=none;html=1;exitX=1;exitY=0.25;exitDx=0;exitDy=0;entryX=0;entryY=0.5;entryDx=0;entryDy=0;startArrow=classic;startFill=1;" parent="2" source="29" target="26" edge="1">
                    <mxGeometry relative="1" as="geometry"/>
                </mxCell>
                <mxCell id="31" style="edgeStyle=none;html=1;exitX=1;exitY=0.75;exitDx=0;exitDy=0;entryX=0;entryY=0.5;entryDx=0;entryDy=0;startArrow=classic;startFill=1;" parent="2" source="29" target="27" edge="1">
                    <mxGeometry relative="1" as="geometry"/>
                </mxCell>
                <mxCell id="29" value="Action Dispatcher" style="rounded=0;whiteSpace=wrap;html=1;" parent="2" vertex="1">
                    <mxGeometry x="170" y="132.5" width="70" height="55" as="geometry"/>
                </mxCell>
                <mxCell id="M6VMKP6yq0q3f6WBnMcB-12" value="&lt;br&gt;Game&lt;br&gt;Engine" style="strokeWidth=2;html=1;shape=mxgraph.flowchart.database;whiteSpace=wrap;" parent="2" vertex="1">
                    <mxGeometry x="50" y="127.5" width="60" height="65" as="geometry"/>
                </mxCell>
                <mxCell id="32" style="edgeStyle=none;html=1;exitX=0;exitY=0.5;exitDx=0;exitDy=0;entryX=1;entryY=0.5;entryDx=0;entryDy=0;entryPerimeter=0;startArrow=classic;startFill=1;" parent="2" source="29" target="M6VMKP6yq0q3f6WBnMcB-12" edge="1">
                    <mxGeometry relative="1" as="geometry">
                        <mxPoint x="80" y="97.19047619047615" as="targetPoint"/>
                    </mxGeometry>
                </mxCell>
                <mxCell id="36" style="edgeStyle=none;html=1;exitX=1;exitY=0.5;exitDx=0;exitDy=0;startArrow=classic;startFill=1;entryX=0;entryY=0.5;entryDx=0;entryDy=0;" parent="2" source="29" target="37" edge="1">
                    <mxGeometry relative="1" as="geometry">
                        <mxPoint x="260" y="158.74999999999994" as="sourcePoint"/>
                        <mxPoint x="270" y="150" as="targetPoint"/>
                    </mxGeometry>
                </mxCell>
                <mxCell id="37" value="..." style="rounded=0;whiteSpace=wrap;html=1;dashed=1;" parent="2" vertex="1">
                    <mxGeometry x="270" y="140" width="80" height="40" as="geometry"/>
                </mxCell>
                <mxCell id="10" value="" style="endArrow=classic;html=1;exitX=0;exitY=0.75;exitDx=0;exitDy=0;" parent="1" source="6" target="M6VMKP6yq0q3f6WBnMcB-10" edge="1">
                    <mxGeometry width="50" height="50" relative="1" as="geometry">
                        <mxPoint x="730" y="360" as="sourcePoint"/>
                        <mxPoint x="780" y="310" as="targetPoint"/>
                    </mxGeometry>
                </mxCell>
                <mxCell id="15" style="edgeStyle=none;html=1;entryX=0;entryY=0.5;entryDx=0;entryDy=0;" parent="1" source="M6VMKP6yq0q3f6WBnMcB-43" target="M6VMKP6yq0q3f6WBnMcB-16" edge="1">
                    <mxGeometry relative="1" as="geometry"/>
                </mxCell>
                <mxCell id="17" style="edgeStyle=none;html=1;entryX=-0.02;entryY=0.581;entryDx=0;entryDy=0;exitX=1;exitY=0.5;exitDx=0;exitDy=0;exitPerimeter=0;entryPerimeter=0;startArrow=classic;startFill=1;" parent="1" source="M6VMKP6yq0q3f6WBnMcB-42" target="18" edge="1">
                    <mxGeometry relative="1" as="geometry">
                        <mxPoint x="750" y="225" as="targetPoint"/>
                    </mxGeometry>
                </mxCell>
                <mxCell id="33" style="edgeStyle=none;html=1;exitX=1;exitY=0.25;exitDx=0;exitDy=0;entryX=0;entryY=0.5;entryDx=0;entryDy=0;entryPerimeter=0;startArrow=classic;startFill=1;" parent="1" source="26" target="M6VMKP6yq0q3f6WBnMcB-42" edge="1">
                    <mxGeometry relative="1" as="geometry">
                        <mxPoint x="380" y="205" as="targetPoint"/>
                        <Array as="points"/>
                    </mxGeometry>
                </mxCell>
                <mxCell id="35" style="edgeStyle=none;html=1;exitX=1;exitY=0.5;exitDx=0;exitDy=0;entryX=0;entryY=0.5;entryDx=0;entryDy=0;entryPerimeter=0;" parent="1" source="26" target="M6VMKP6yq0q3f6WBnMcB-43" edge="1">
                    <mxGeometry relative="1" as="geometry">
                        <mxPoint x="467.5" y="225" as="targetPoint"/>
                        <mxPoint x="320" y="215" as="sourcePoint"/>
                        <Array as="points"/>
                    </mxGeometry>
                </mxCell>
                <mxCell id="38" style="edgeStyle=none;html=1;exitX=1;exitY=0.5;exitDx=0;exitDy=0;exitPerimeter=0;entryX=1;entryY=0.75;entryDx=0;entryDy=0;" parent="1" source="M6VMKP6yq0q3f6WBnMcB-10" target="26" edge="1">
                    <mxGeometry relative="1" as="geometry"/>
                </mxCell>
            </root>
        </mxGraphModel>
    </diagram>
</mxfile>